<?xml version="1.0" encoding="utf-8"?>
<!-- Generator: Adobe Illustrator 27.9.0, SVG Export Plug-In . SVG Version: 6.00 Build 0)  -->
<svg version="1.1" id="Ebene_1" xmlns="http://www.w3.org/2000/svg" xmlns:xlink="http://www.w3.org/1999/xlink" x="0px" y="0px"
	 viewBox="0 0 44.2 24" style="enable-background:new 0 0 44.2 24;" xml:space="preserve">
<style type="text/css">
	.st0{display:none;fill:#20C20E;}
	.st1{display:none;}
	.st2{display:inline;fill:#AE7C1A;}
	.st3{display:none;fill-rule:evenodd;clip-rule:evenodd;fill:#AE7C1A;}
	.st4{display:inline;}
	.st5{fill:#AE7C1A;}
	.st6{fill:#BE2525;}
</style>
<path class="st0" d="M11.4,8.5h1.2v6.9h-1.2V8.5z M1.2,15.5H0v-7h1.2V15.5z M5.7,16.3h1.2v2.6H5.7V16.3z M2.8,13.3H4v4.3H2.8V13.3z
	 M8.5,13.3h1.2v4.3H8.5V13.3z M22.8,8.5H24v6.9h-1.2V8.5z M18.3,7.7h-1.2V5.1h1.2V7.7z M21.2,10.7H20V6.4h1.2V10.7z M15.4,10.7h-1.2
	V6.4h1.2V10.7z"/>
<g class="st1">
	<path class="st2" d="M4.7,14C5.4,14,6,13.9,6,13.4s-0.7-0.5-2.1-0.8c-1.7-0.3-2.2-1-2.2-2c0-1.3,1.4-2.1,2.9-2.1
		c2.2,0,3.1,1.1,3.1,2.3H5.8c0-0.6-0.4-0.8-1.2-0.8c-0.6,0-1,0.2-1,0.6c0,0.4,0.2,0.5,1.7,0.8C6.7,11.7,8,11.9,8,13.3
		c0,1.3-1,2.2-3.2,2.2c-2.4,0-3.4-1.2-3.4-2.4h1.9C3.3,13.6,3.8,14,4.7,14z"/>
	<path class="st2" d="M10.5,8.6v2.8h0.6l1.8-2.8h2.3l-2.3,3.5l2.7,3.3h-2.4l-1.9-2.5h-0.7v2.5h-2V8.6H10.5z"/>
	<path class="st2" d="M15.3,8.6h2.2l1.6,3.1l1.6-3.1h2.2L20,13.4v2h-1.9v-2L15.3,8.6z"/>
	<path class="st2" d="M25.2,8.6l3.2,4.3V8.6h1.9v6.8h-1.9l-3.2-4.1v4.1h-1.9V8.6H25.2z"/>
	<path class="st2" d="M36.3,8.6v1.6H33v1.1h3v1.5h-3v1.1h3.3v1.6h-5.2V8.6H36.3z"/>
	<path class="st2" d="M42.8,8.6v1.6h-2.1v5.2h-1.9v-5.2h-2.1V8.6H42.8z"/>
</g>
<path class="st3" d="M17.2,17.3l-1.7,3l1.3-3c-0.3,0-0.4-0.2-0.4-0.4V4.2c0-0.3,0.1-0.4,0.4-0.4h1.8c0.3,0,0.4,0.1,0.4,0.4v10
	L17.2,17.3z M25.1,20.3h-1.8c-0.3,0-0.5-0.1-0.5-0.4V9.2C22.8,9,22.7,9,22.6,9h-1.8l1.3-2.3l1.7-3l-1.3,3h5.6c0.3,0,0.4,0.1,0.4,0.4
	v1.4c0,0.3-0.1,0.4-0.4,0.4h-2.4c-0.2,0-0.3,0.1-0.3,0.2v10.6C25.6,20.1,25.4,20.3,25.1,20.3L25.1,20.3z"/>
<g class="st1">
	<g class="st4">
		<g>
			<path class="st5" d="M21.3,2.5c4.3,0,8,2.8,9.2,6.9l0,0c0.4-0.5,0.8-1,1-1.4c-0.3-0.9-0.8-1.7-1.4-2.4L30,5.4
				c-0.4-0.5-0.8-1-1.3-1.4l-0.1-0.1c-2-1.8-4.6-2.8-7.3-2.8S16,2.1,14,3.9s-3.3,4.3-3.5,7v0.2c0,0.1,0,0.3,0,0.5s0,0.3,0,0.5
				s0,0.3,0,0.5c0,0.1,0,0.3,0,0.5v0.2c0.1,1,0.3,1.9,0.7,2.8c0.5,0.2,1,0.3,1.6,0.3h0.1c-0.7-1.3-1-2.8-1-4.3
				C11.8,6.7,16,2.5,21.3,2.5z"/>
			<path class="st5" d="M32.2,11.4c-0.1,0.1-0.2,0.2-0.4,0.3c-0.3,0.3-0.6,0.5-1,0.8c0,0,0,0-0.1,0c-0.3,5.1-4.5,9-9.5,9
				c-2.5,0-4.8-0.9-6.6-2.6c-0.1,0-0.1,0-0.2,0c-0.5,0-0.9,0.1-1.3,0.1c-0.1,0-0.2,0-0.4,0c0.4,0.5,0.9,1,1.4,1.4
				c0.6,0.5,1.3,1,2.1,1.4c0.7,0.4,1.5,0.7,2.4,0.9c0.8,0.2,1.7,0.3,2.6,0.3c6,0,10.9-4.9,10.9-10.9C32.3,11.8,32.2,11.6,32.2,11.4z
				"/>
		</g>
	</g>
	<g class="st4">
		<g>
			<path class="st5" d="M24.7,13.7c0-0.3,0-0.5,0-0.5V8.4h3.8c-0.3-0.7-0.7-1.3-1.1-1.9c-2.8,0-5.3,0-8.2,0v1.9h3.4v6.2
				c0.2-0.1,0.5-0.2,0.7-0.3C23.8,14.1,24.3,13.9,24.7,13.7z"/>
			<g>
				<path class="st5" d="M22.7,16.7v0.8h2v-1.6c-0.3,0.1-0.7,0.3-1,0.4C23.4,16.4,23,16.5,22.7,16.7z"/>
			</g>
		</g>
		<g>
			<path class="st5" d="M34.1,5.7c-0.5-1.4-2.2-2.2-4.9-2.3c0.5,0.5,1,1,1.4,1.5c0.9,0.3,1.6,0.8,1.8,1.4c0.2,0.5,0.1,1-0.1,1.6
				c0,0.1,0,0.1-0.1,0.2l0,0l0,0c0,0.1-0.1,0.2-0.1,0.3l0,0c-0.2,0.4-0.6,0.9-1,1.4c-0.3,0.3-0.6,0.6-1,0.9l0,0
				c-0.1,0.1-0.2,0.2-0.4,0.3c-0.8,0.7-1.8,1.4-2.9,2c-0.3,0.2-0.7,0.4-1,0.6c-0.7,0.4-1.4,0.7-2.2,1.1c-0.8,0.3-1.6,0.6-2.4,0.9
				c-0.3,0.1-0.6,0.2-0.9,0.3c-0.2,0.1-0.4,0.1-0.7,0.2c-0.7,0.2-1.5,0.4-2.2,0.5V9.3c-0.3,0.2-0.6,0.3-1,0.3s-0.7-0.1-1-0.3V17
				c-0.5,0-0.9,0.1-1.3,0.1c-0.1,0-0.2,0-0.3,0h-0.2h-0.1c-0.3,0-0.6,0-0.8,0c-0.8-0.1-1.5-0.2-2.1-0.5c-0.7-0.3-1.1-0.7-1.3-1.2
				C9,14.8,9.1,14,9.7,13.1c0-0.3,0-0.7,0-1s0-0.7,0-1c-1.9,1.9-2.7,3.7-2.2,5c0.5,1.2,1.8,1.9,3.9,2.2c0.4,0,0.8,0.1,1.3,0.1h0.2
				c0.1,0,0.3,0,0.4,0c0.4,0,0.8,0,1.2-0.1c0.2,0,0.3,0,0.5-0.1c0.4,0,0.8-0.1,1.2-0.2c0.3-0.1,0.6-0.1,0.9-0.2
				c0.8-0.2,1.7-0.4,2.5-0.6c0.3-0.1,0.5-0.1,0.8-0.2s0.6-0.2,0.9-0.3c0.8-0.3,1.5-0.5,2.2-0.8c0.8-0.3,1.5-0.7,2.3-1
				c0.4-0.2,0.7-0.4,1-0.5c1.2-0.7,2.3-1.4,3.2-2.1c0.1-0.1,0.2-0.2,0.3-0.2c0.3-0.3,0.6-0.5,1-0.8c0.5-0.5,1-0.9,1.4-1.4
				C34,8.2,34.5,6.8,34.1,5.7z"/>
			<path class="st5" d="M17.6,7.7c0,0.6-0.5,1.2-1.2,1.2c-0.6,0-1.2-0.5-1.2-1.2c0-0.6,0.5-1.2,1.2-1.2C17.1,6.6,17.6,7.1,17.6,7.7z
				"/>
		</g>
	</g>
</g>
<g class="st1">
	<g class="st4">
		<g>
			<g>
				<path class="st6" d="M25.8,15.7v-2.2l4.3-5.3h2.3v5.5h2.1V7.9c0-0.8-0.7-1.5-1.5-1.5h-8.4C23.7,6.3,23,7,23,7.9v8.4
					c0,0.8,0.7,1.5,1.5,1.5H30v-2.1C30,15.7,25.8,15.7,25.8,15.7z"/>
				<polygon class="st6" points="27.7,13.7 30.1,13.7 30.1,10.6 30.1,10.6 				"/>
				<path class="st6" d="M32.4,15.7v2.1H33c0.8,0,1.5-0.7,1.5-1.5v-0.6C34.5,15.7,32.4,15.7,32.4,15.7z"/>
			</g>
		</g>
	</g>
	<g class="st4">
		<g>
			<path class="st6" d="M1,14.4c0-1.6,1-2.7,2.6-2.7c1.5,0,2.4,0.9,2.4,2.1H4.7c-0.1-0.5-0.5-0.9-1-0.9c-0.8,0-1.2,0.6-1.2,1.6V15
				c0,1,0.5,1.7,1.2,1.7c0.6,0,1-0.4,1-0.8H6c-0.1,1.3-1.1,2-2.4,2C2,17.7,1,16.6,1,14.9V14.4z"/>
			<path class="st6" d="M6.3,15.9c0-1,0.7-1.7,2.1-1.7h1.4v-0.5c0-0.6-0.4-0.9-1-0.9s-0.9,0.3-1,0.8H6.5c0-1,0.7-1.9,2.4-1.9
				c1.3,0,2.4,0.6,2.4,2v3.9H9.8v-0.7l0,0c-0.2,0.4-0.7,0.8-1.6,0.8C7.1,17.7,6.3,17,6.3,15.9z M9.8,15.7v-0.6H8.7
				c-0.6,0-1,0.3-1,0.8s0.5,0.8,0.9,0.8C9.3,16.6,9.8,16.3,9.8,15.7z"/>
			<path class="st6" d="M12,11.8h1.4v0.8h0.1c0.1-0.4,0.6-0.9,1.4-0.9c0.2,0,0.3,0,0.5,0V13c-0.1,0-0.3,0-0.6,0
				c-1,0-1.3,0.6-1.3,1.4v3.3H12V11.8z"/>
			<path class="st6" d="M15.4,14.9v-0.5c0-1.7,1-2.7,2.6-2.7s2.6,1.1,2.6,2.8V15h-3.7v0.2c0,0.9,0.5,1.4,1.2,1.4
				c0.6,0,1-0.3,1.1-0.8h1.3c-0.1,0.9-0.9,1.9-2.5,1.9C16.5,17.7,15.4,16.7,15.4,14.9z M19.2,14.1L19.2,14.1c0-0.8-0.5-1.3-1.2-1.3
				s-1.2,0.6-1.2,1.3l0,0H19.2z"/>
		</g>
		<g>
			<g>
				<path class="st6" d="M38.2,9.5c0.5,0,1,0.3,1,0.9c0,0.5-0.4,0.9-1,0.9c-0.5,0-1-0.3-1-0.9C37.3,9.8,37.7,9.5,38.2,9.5z
					 M37.4,11.8h1.8v5.9h-1.8V11.8z"/>
				<path class="st6" d="M40.3,10.5H42v1.4h1.1v1.3H42v2.5c0,0.5,0.3,0.7,0.8,0.7c0.1,0,0.3,0,0.3,0v1.3c-0.1,0-0.4,0-0.8,0
					c-1.5,0-2.1-0.5-2.1-1.7v-2.9h-0.9v-1.3h0.9L40.3,10.5L40.3,10.5z"/>
			</g>
			<ellipse class="st6" cx="38.2" cy="10.2" rx="1.3" ry="1.1"/>
		</g>
	</g>
</g>
<g>
	<path class="st6" d="M6.3,9l1.8,4L10,9h1.6v5.7H10v-2.8l-1.2,2.8H7.6l-1.2-2.8v2.8H4.7V9H6.3z"/>
	<path class="st6" d="M17.2,14.8c0,0-1,0-1,0c-0.6,0-1-0.3-1.1-0.8c-0.3,0.5-0.8,0.8-1.5,0.8c-1,0-1.4-0.6-1.4-1.6v-2.6h1.6v2.1
		c0,0.5,0.1,0.7,0.6,0.7c0.4,0,0.6-0.2,0.6-0.8v-2.1h1.6v2.3c0,0.4,0.1,0.5,0.5,0.5c0,0,0,0,0.1,0V14.8z"/>
	<path class="st6" d="M19.2,10.6c0.6,0,1,0.2,1.3,0.7V9h1.6v5.7h-1.6v-0.6c-0.3,0.4-0.7,0.7-1.3,0.7c-1.2,0-1.9-0.9-1.9-2.1
		C17.3,11.5,18.1,10.6,19.2,10.6z M20.5,12.9v-0.5c0-0.3-0.4-0.6-0.8-0.6c-0.4,0-0.8,0.3-0.8,0.8c0,0.5,0.4,0.8,0.8,0.8
		C20.2,13.5,20.5,13.3,20.5,12.9z"/>
	<path class="st6" d="M24.4,10.6c0.6,0,1,0.2,1.3,0.7V9h1.6v5.7h-1.6v-0.6c-0.3,0.4-0.7,0.7-1.3,0.7c-1.2,0-1.9-0.9-1.9-2.1
		C22.5,11.5,23.3,10.6,24.4,10.6z M25.7,12.9v-0.5c0-0.3-0.4-0.6-0.8-0.6c-0.4,0-0.8,0.3-0.8,0.8c0,0.5,0.4,0.8,0.8,0.8
		C25.4,13.5,25.7,13.3,25.7,12.9z"/>
	<path class="st6" d="M30,13.6c0.4,0,0.6-0.1,0.6-0.4h1.6c-0.1,0.8-0.8,1.6-2.3,1.6c-1.3,0-2.2-0.8-2.2-2.1c0-1.3,0.9-2.1,2.2-2.1
		c1.6,0,2.3,0.8,2.3,2.1V13h-2.9C29.5,13.5,29.7,13.6,30,13.6z M30,11.8c-0.3,0-0.6,0.2-0.6,0.6h1.2C30.6,11.9,30.4,11.8,30,11.8z"
		/>
	<path class="st6" d="M34.2,10.7v0.7c0.3-0.5,0.7-0.7,1.2-0.7h0.4v1.3h-1c-0.4,0-0.6,0.1-0.6,0.7v2.2h-1.6v-4.1H34.2z"/>
	<path class="st6" d="M38.3,13.9c0.4,0,0.5-0.1,0.5-0.2c0-0.2-0.2-0.2-1-0.4c-1-0.2-1.7-0.6-1.7-1.4c0-0.9,1.1-1.3,2-1.3
		c1.3,0,2.1,0.8,2.1,1.5h-1.5c0-0.3-0.1-0.5-0.6-0.5c-0.3,0-0.5,0-0.5,0.2c0,0.3,0.4,0.3,1.2,0.5c0.9,0.2,1.5,0.4,1.5,1.2
		c0,0.8-0.8,1.4-2.1,1.4c-1.4,0-2.2-0.8-2.2-1.5h1.4C37.4,13.7,37.8,13.9,38.3,13.9z"/>
</g>
</svg>
