<?xml version="1.0" encoding="utf-8"?>
<!-- Generator: Adobe Illustrator 27.9.0, SVG Export Plug-In . SVG Version: 6.00 Build 0)  -->
<svg version="1.1" id="Ebene_1" xmlns="http://www.w3.org/2000/svg" xmlns:xlink="http://www.w3.org/1999/xlink" x="0px" y="0px"
	 viewBox="0 0 44.2 24" style="enable-background:new 0 0 44.2 24;" xml:space="preserve">
<style type="text/css">
	.st0{display:none;fill:#20C20E;}
	.st1{display:none;}
	.st2{display:inline;fill:#AE7C1A;}
	.st3{fill:#AE7C1A;}
</style>
<path class="st0" d="M11.4,8.5h1.2v6.9h-1.2V8.5z M1.2,15.5H0v-7h1.2V15.5z M5.7,16.3h1.2v2.6H5.7V16.3z M2.8,13.3H4v4.3H2.8V13.3z
	 M8.5,13.3h1.2v4.3H8.5V13.3z M22.8,8.5H24v6.9h-1.2V8.5z M18.3,7.7h-1.2V5.1h1.2V7.7z M21.2,10.7H20V6.4h1.2V10.7z M15.4,10.7h-1.2
	V6.4h1.2V10.7z"/>
<g class="st1">
	<path class="st2" d="M4.7,14C5.4,14,6,13.9,6,13.4s-0.7-0.5-2.1-0.8c-1.7-0.3-2.2-1-2.2-2c0-1.3,1.4-2.1,2.9-2.1
		c2.2,0,3.1,1.1,3.1,2.3H5.8c0-0.6-0.4-0.8-1.2-0.8c-0.6,0-1,0.2-1,0.6c0,0.4,0.2,0.5,1.7,0.8C6.7,11.7,8,11.9,8,13.3
		c0,1.3-1,2.2-3.2,2.2c-2.4,0-3.4-1.2-3.4-2.4h1.9C3.3,13.6,3.8,14,4.7,14z"/>
	<path class="st2" d="M10.5,8.6v2.8h0.6l1.8-2.8h2.3l-2.3,3.5l2.7,3.3h-2.4l-1.9-2.5h-0.7v2.5h-2V8.6H10.5z"/>
	<path class="st2" d="M15.3,8.6h2.2l1.6,3.1l1.6-3.1h2.2L20,13.4v2h-1.9v-2L15.3,8.6z"/>
	<path class="st2" d="M25.2,8.6l3.2,4.3V8.6h1.9v6.8h-1.9l-3.2-4.1v4.1h-1.9V8.6H25.2z"/>
	<path class="st2" d="M36.3,8.6v1.6H33v1.1h3v1.5h-3v1.1h3.3v1.6h-5.2V8.6H36.3z"/>
	<path class="st2" d="M42.8,8.6v1.6h-2.1v5.2h-1.9v-5.2h-2.1V8.6H42.8z"/>
</g>
<g>
	<path class="st3" d="M6.9,10.4c0,1.2-0.7,1.8-1.4,2.1l1.8,2.4H5.2l-1.6-2.2H2.7v2.2H0.8V8.2h3.5C5.3,8.2,6.9,8.6,6.9,10.4z
		 M4.1,11.3C4.6,11.3,5,11,5,10.5S4.6,9.7,4.1,9.7H2.7v1.6H4.1z"/>
	<path class="st3" d="M11.2,8.1c2,0,3.7,1.3,3.7,3.4S13.3,15,11.2,15c-2,0-3.7-1.3-3.7-3.4S9.2,8.1,11.2,8.1z M9.4,11.6
		c0,1.1,0.7,1.9,1.8,1.9c1.1,0,1.8-0.8,1.8-1.9c0-1.1-0.7-1.9-1.8-1.9C10.1,9.7,9.4,10.4,9.4,11.6z"/>
	<path class="st3" d="M18.7,13.6c0.7,0,1.3-0.2,1.3-0.6c0-0.5-0.7-0.5-2.1-0.8c-1.6-0.3-2.2-1-2.2-2c0-1.3,1.4-2.1,2.9-2.1
		c2.2,0,3.1,1.1,3.1,2.3h-1.9c0-0.5-0.4-0.8-1.2-0.8c-0.5,0-1,0.2-1,0.6c0,0.4,0.2,0.5,1.6,0.8c1.4,0.3,2.6,0.5,2.6,1.9
		c0,1.3-1,2.2-3.1,2.2c-2.4,0-3.3-1.2-3.3-2.4h1.9C17.3,13.2,17.8,13.6,18.7,13.6z"/>
	<path class="st3" d="M27.6,8.2v1.5h-3.2v1.1h2.9v1.4h-2.9v1.1h3.2v1.5h-5.1V8.2H27.6z"/>
	<path class="st3" d="M30.1,8.2v2.5h3.3V8.2h1.9v6.7h-1.9v-2.7h-3.3v2.7h-1.9V8.2H30.1z"/>
	<path class="st3" d="M38,8.2v2.5h3.3V8.2h1.9v6.7h-1.9v-2.7H38v2.7h-1.9V8.2H38z"/>
</g>
</svg>
