<?xml version="1.0" encoding="utf-8"?>
<!-- Generator: Adobe Illustrator 27.9.0, SVG Export Plug-In . SVG Version: 6.00 Build 0)  -->
<svg version="1.1" id="Ebene_1" xmlns="http://www.w3.org/2000/svg" xmlns:xlink="http://www.w3.org/1999/xlink" x="0px" y="0px"
	 viewBox="0 0 44.2 24" style="enable-background:new 0 0 44.2 24;" xml:space="preserve">
<style type="text/css">
	.st0{display:none;fill:#20C20E;}
	.st1{display:none;}
	.st2{display:inline;fill:#AE7C1A;}
	.st3{fill:#64C0DB;}
</style>
<path class="st0" d="M11.4,8.5h1.2v6.9h-1.2V8.5z M1.2,15.5H0v-7h1.2V15.5z M5.7,16.3h1.2v2.6H5.7V16.3z M2.8,13.3H4v4.3H2.8V13.3z
	 M8.5,13.3h1.2v4.3H8.5V13.3z M22.8,8.5H24v6.9h-1.2V8.5z M18.3,7.7h-1.2V5.1h1.2V7.7z M21.2,10.7H20V6.4h1.2V10.7z M15.4,10.7h-1.2
	V6.4h1.2V10.7z"/>
<g class="st1">
	<path class="st2" d="M4.7,14C5.4,14,6,13.9,6,13.4s-0.7-0.5-2.1-0.8c-1.7-0.3-2.2-1-2.2-2c0-1.3,1.4-2.1,2.9-2.1
		c2.2,0,3.1,1.1,3.1,2.3H5.8c0-0.6-0.4-0.8-1.2-0.8c-0.6,0-1,0.2-1,0.6c0,0.4,0.2,0.5,1.7,0.8C6.7,11.7,8,11.9,8,13.3
		c0,1.3-1,2.2-3.2,2.2c-2.4,0-3.4-1.2-3.4-2.4h1.9C3.3,13.6,3.8,14,4.7,14z"/>
	<path class="st2" d="M10.5,8.6v2.8h0.6l1.8-2.8h2.3l-2.3,3.5l2.7,3.3h-2.4l-1.9-2.5h-0.7v2.5h-2V8.6H10.5z"/>
	<path class="st2" d="M15.3,8.6h2.2l1.6,3.1l1.6-3.1h2.2L20,13.4v2h-1.9v-2L15.3,8.6z"/>
	<path class="st2" d="M25.2,8.6l3.2,4.3V8.6h1.9v6.8h-1.9l-3.2-4.1v4.1h-1.9V8.6H25.2z"/>
	<path class="st2" d="M36.3,8.6v1.6H33v1.1h3v1.5h-3v1.1h3.3v1.6h-5.2V8.6H36.3z"/>
	<path class="st2" d="M42.8,8.6v1.6h-2.1v5.2h-1.9v-5.2h-2.1V8.6H42.8z"/>
</g>
<g class="st1">
	<path class="st2" d="M6.9,10.4c0,1.2-0.7,1.8-1.4,2.1l1.8,2.4H5.2l-1.6-2.2H2.7v2.2H0.8V8.2h3.5C5.3,8.2,6.9,8.6,6.9,10.4z
		 M4.1,11.3C4.6,11.3,5,11,5,10.5S4.6,9.7,4.1,9.7H2.7v1.6H4.1z"/>
	<path class="st2" d="M11.2,8.1c2,0,3.7,1.3,3.7,3.4S13.3,15,11.2,15c-2,0-3.7-1.3-3.7-3.4S9.2,8.1,11.2,8.1z M9.4,11.6
		c0,1.1,0.7,1.9,1.8,1.9s1.8-0.8,1.8-1.9s-0.7-1.9-1.8-1.9C10.1,9.7,9.4,10.4,9.4,11.6z"/>
	<path class="st2" d="M18.7,13.6c0.7,0,1.3-0.2,1.3-0.6c0-0.5-0.7-0.5-2.1-0.8c-1.6-0.3-2.2-1-2.2-2c0-1.3,1.4-2.1,2.9-2.1
		c2.2,0,3.1,1.1,3.1,2.3h-1.9c0-0.5-0.4-0.8-1.2-0.8c-0.5,0-1,0.2-1,0.6c0,0.4,0.2,0.5,1.6,0.8s2.6,0.5,2.6,1.9c0,1.3-1,2.2-3.1,2.2
		c-2.4,0-3.3-1.2-3.3-2.4h1.9C17.3,13.2,17.8,13.6,18.7,13.6z"/>
	<path class="st2" d="M27.6,8.2v1.5h-3.2v1.1h2.9v1.4h-2.9v1.1h3.2v1.5h-5.1V8.2H27.6z"/>
	<path class="st2" d="M30.1,8.2v2.5h3.3V8.2h1.9v6.7h-1.9v-2.7h-3.3v2.7h-1.9V8.2H30.1z"/>
	<path class="st2" d="M38,8.2v2.5h3.3V8.2h1.9v6.7h-1.9v-2.7H38v2.7h-1.9V8.2H38z"/>
</g>
<g>
	<path class="st3" d="M3.4,6.4H3.2v0.2H2.6V6.4H2.3V5.3h0.2V5.1h0.7v0.2h0.2v0.2H3.2V5.4H2.6v1.1h0.6V6.2h0.2V6.4z"/>
	<path class="st3" d="M5,6.7H4.8V6.2H4.1v0.4H3.9V5.8h0.2V5.3h0.2V5.1h0.2v0.2h0.2v0.4H5V6.7z M4.8,6V5.8H4.5V5.4H4.3v0.4H4.1V6H4.8
		z"/>
	<path class="st3" d="M6.5,6.7H6.3V6H5.6v0.7H5.4V5.1h0.9v0.2h0.2v0.4H6.3V6h0.2V6.7z M6.3,5.8V5.4H5.6v0.4H6.3z"/>
	<path class="st3" d="M8.1,6.4H7.8v0.2H7.2V6.4H7V5.3h0.2V5.1h0.7v0.2h0.2V6H7.2v0.4h0.6V6.2h0.2V6.4z M7.8,5.8V5.4H7.2v0.4H7.8z"/>
	<path class="st3" d="M9.6,6.7H9.4V6H8.5V5.1h0.2v0.7h0.6V5.1h0.2V6.7z"/>
	<path class="st3" d="M11.1,6.7H10V6.4h0.4V5.4H10V5.1h1.1v0.2h-0.4v1.1h0.4V6.7z"/>
	<path class="st3" d="M12.2,6.7H12V5.4h-0.4V5.1h1.1v0.2h-0.4V6.7z"/>
	<path class="st3" d="M15.7,6.7h-1.1V6.4h0.4V5.4h-0.4V5.1h1.1v0.2h-0.4v1.1h0.4V6.7z"/>
	<path class="st3" d="M17.3,6.7H17V6.2h-0.2V6h-0.2V5.8h-0.2v0.9h-0.2V5.1h0.2v0.4h0.2v0.2h0.2V6H17V5.1h0.2V6.7z"/>
	<path class="st3" d="M18.8,6.4h-0.2v0.2h-0.9V5.1h0.9v0.2h0.2V6.4z M18.6,6.4V5.4h-0.6v1.1H18.6z"/>
	<path class="st3" d="M20.3,6.4h-0.2v0.2h-0.7V6.4h-0.2V5.1h0.2v1.3h0.6V5.1h0.2V6.4z"/>
	<path class="st3" d="M21.9,6.4h-0.2v0.2H21V6.4h-0.2V6.2H21v0.2h0.6V6H21V5.8h-0.2V5.3H21V5.1h0.7v0.2h0.2v0.2h-0.2V5.4H21v0.4h0.7
		V6h0.2V6.4z"/>
	<path class="st3" d="M23,6.7h-0.2V5.4h-0.4V5.1h1.1v0.2H23V6.7z"/>
	<path class="st3" d="M25,6.7h-0.2V6h-0.6v0.7h-0.2V5.1h0.9v0.2H25v0.4h-0.2V6H25V6.7z M24.7,5.8V5.4h-0.6v0.4H24.7z"/>
	<path class="st3" d="M26.5,6.7h-1.1V6.4h0.4V5.4h-0.4V5.1h1.1v0.2h-0.4v1.1h0.4V6.7z"/>
	<path class="st3" d="M28,6.4h-0.2v0.2h-0.7V6.4h-0.2V5.3h0.2V5.1h0.7v0.2H28V6h-0.9v0.4h0.6V6.2H28V6.4z M27.8,5.8V5.4h-0.6v0.4
		H27.8z"/>
	<path class="st3" d="M29.6,6.4h-0.2v0.2h-0.7V6.4h-0.2V6.2h0.2v0.2h0.6V6h-0.7V5.8h-0.2V5.3h0.2V5.1h0.7v0.2h0.2v0.2h-0.2V5.4h-0.6
		v0.4h0.7V6h0.2V6.4z"/>
	<path class="st3" d="M32.6,6.4h-0.2v0.2h-0.7V6.4h-0.2V5.1h0.2v1.3h0.6V5.1h0.2V6.4z"/>
	<path class="st3" d="M34.2,6.7H34V6.2h-0.2V6h-0.2V5.8h-0.2v0.9h-0.2V5.1h0.2v0.4h0.2v0.2h0.2V6H34V5.1h0.2V6.7z"/>
	<path class="st3" d="M35.7,6.7h-1.1V6.4h0.4V5.4h-0.4V5.1h1.1v0.2h-0.4v1.1h0.4V6.7z"/>
	<path class="st3" d="M37,6h-0.7v0.7h-0.2V5.1h1.1v0.2h-0.9v0.4H37V6z"/>
	<path class="st3" d="M38.8,6.7h-1.1V6.4h0.4V5.4h-0.4V5.1h1.1v0.2h-0.4v1.1h0.4V6.7z"/>
	<path class="st3" d="M40.3,6.4h-0.2v0.2h-0.7V6.4h-0.2V5.3h0.2V5.1h0.7v0.2h0.2V6h-0.9v0.4h0.6V6.2h0.2V6.4z M40.1,5.8V5.4h-0.6
		v0.4H40.1z"/>
	<path class="st3" d="M41.9,6.4h-0.2v0.2h-0.9V5.1h0.9v0.2h0.2V6.4z M41.6,6.4V5.4H41v1.1H41.6z"/>
	<path class="st3" d="M11.1,9.6h-0.2v0.2h-0.7V9.6H10V8.5h0.2V8.3h0.7v0.2h0.2V9.6z M10.9,9.6V8.5h-0.6v1.1H10.9z"/>
	<path class="st3" d="M12.7,8.9h-0.2v0.2h-0.7v0.7h-0.2V8.3h0.9v0.2h0.2V8.9z M12.4,8.9V8.5h-0.6v0.4H12.4z"/>
	<path class="st3" d="M14.2,9.6H14v0.2h-0.7V9.6h-0.2V8.5h0.2V8.3H14v0.2h0.2v0.7h-0.9v0.4H14V9.4h0.2V9.6z M14,8.9V8.5h-0.6v0.4H14
		z"/>
	<path class="st3" d="M15.7,9.8h-0.2V9.1h-0.6v0.7h-0.2V8.3h0.9v0.2h0.2v0.4h-0.2v0.2h0.2V9.8z M15.5,8.9V8.5h-0.6v0.4H15.5z"/>
	<path class="st3" d="M17.3,9.8h-0.9V9.6h-0.2V9.1h0.2V8.9H17V8.5h-0.6v0.2h-0.2V8.5h0.2V8.3h0.7v0.2h0.2V9.8z M17,9.6V9.1h-0.6v0.4
		H17z"/>
	<path class="st3" d="M18.4,9.8h-0.2V8.5h-0.4V8.3h1.1v0.2h-0.4V9.8z"/>
	<path class="st3" d="M20.3,9.8h-1.1V9.6h0.4V8.5h-0.4V8.3h1.1v0.2h-0.4v1.1h0.4V9.8z"/>
	<path class="st3" d="M21.9,9.8h-0.2V9.4h-0.2V9.1h-0.2V8.9H21v0.9h-0.2V8.3H21v0.4h0.2v0.2h0.2v0.2h0.2V8.3h0.2V9.8z"/>
	<path class="st3" d="M23.4,9.6h-0.2v0.2h-0.7V9.6h-0.2V8.5h0.2V8.3h0.7v0.2h0.2v0.2h-0.2V8.5h-0.6v1.1h0.6V9.1h-0.4V8.9h0.7V9.6z"
		/>
	<path class="st3" d="M26.5,9.6h-0.2v0.2h-0.7V9.6h-0.2V9.4h0.2v0.2h0.6V9.1h-0.7V8.9h-0.2V8.5h0.2V8.3h0.7v0.2h0.2v0.2h-0.2V8.5
		h-0.6v0.4h0.7v0.2h0.2V9.6z"/>
	<path class="st3" d="M27.6,9.8h-0.2V9.1h-0.2V8.9h-0.2V8.3h0.2v0.7h0.2v0.2h0.2V8.9h0.2V8.3H28v0.7h-0.2v0.2h-0.2V9.8z"/>
	<path class="st3" d="M29.6,9.6h-0.2v0.2h-0.7V9.6h-0.2V9.4h0.2v0.2h0.6V9.1h-0.7V8.9h-0.2V8.5h0.2V8.3h0.7v0.2h0.2v0.2h-0.2V8.5
		h-0.6v0.4h0.7v0.2h0.2V9.6z"/>
	<path class="st3" d="M30.7,9.8h-0.2V8.5H30V8.3h1.1v0.2h-0.4V9.8z"/>
	<path class="st3" d="M32.6,9.6h-0.2v0.2h-0.7V9.6h-0.2V8.5h0.2V8.3h0.7v0.2h0.2v0.7h-0.9v0.4h0.6V9.4h0.2V9.6z M32.4,8.9V8.5h-0.6
		v0.4H32.4z"/>
	<path class="st3" d="M34.2,9.8H34V8.7h-0.2v0.2h-0.2V8.7h-0.2v1.1h-0.2V8.3h0.2v0.2h0.2v0.2h0.2V8.5H34V8.3h0.2V9.8z"/>
	<path class="st3" d="M1.9,12.7H1.7v0.2H1v-0.2H0.8v-1.1H1v-0.2h0.7v0.2h0.2v0.2H1.7v-0.2H1v1.1h0.6v-0.2h0.2V12.7z"/>
	<path class="st3" d="M3.4,12.7H3.2v0.2H2.6v-0.2H2.3v-1.1h0.2v-0.2h0.7v0.2h0.2V12.7z M3.2,12.7v-1.1H2.6v1.1H3.2z"/>
	<path class="st3" d="M5,12.1H4.8v0.2H4.1v0.7H3.9v-1.5h0.9v0.2H5V12.1z M4.8,12.1v-0.4H4.1v0.4H4.8z"/>
	<path class="st3" d="M6.1,12.9H5.9v-0.7H5.6v-0.2H5.4v-0.7h0.2v0.7h0.2v0.2h0.2v-0.2h0.2v-0.7h0.2v0.7H6.3v0.2H6.1V12.9z"/>
	<path class="st3" d="M8.1,12.9H7.8v-0.7H7.2v0.7H7v-1.5h0.9v0.2h0.2v0.4H7.8v0.2h0.2V12.9z M7.8,12.1v-0.4H7.2v0.4H7.8z"/>
	<path class="st3" d="M9.6,12.9H8.5v-0.2h0.4v-1.1H8.5v-0.2h1.1v0.2H9.2v1.1h0.4V12.9z"/>
	<path class="st3" d="M11.1,12.7h-0.2v0.2h-0.7v-0.2H10v-1.1h0.2v-0.2h0.7v0.2h0.2v0.2h-0.2v-0.2h-0.6v1.1h0.6v-0.4h-0.4v-0.2h0.7
		V12.7z"/>
	<path class="st3" d="M12.7,12.9h-0.2v-0.7h-0.6v0.7h-0.2v-1.5h0.2v0.7h0.6v-0.7h0.2V12.9z"/>
	<path class="st3" d="M13.8,12.9h-0.2v-1.3h-0.4v-0.2h1.1v0.2h-0.4V12.9z"/>
	<path class="st3" d="M17.3,12.9h-1.1v-0.4h0.2v-0.2h0.2v-0.2H17v-0.4h-0.6v0.2h-0.2v-0.2h0.2v-0.2h0.7v0.2h0.2v0.4h-0.2v0.2h-0.4
		v0.2h-0.2v0.2h0.9V12.9z"/>
	<path class="st3" d="M18.8,12.7h-0.2v0.2h-0.7v-0.2h-0.2v-1.1h0.2v-0.2h0.7v0.2h0.2V12.7z M18.6,12.7v-1.1h-0.6v1.1H18.6z"/>
	<path class="st3" d="M19.7,12.9h-0.2v-0.4h0.2v-0.4h0.2v-0.2h0.2v-0.2h-0.9v-0.2h1.1v0.4h-0.2v0.2h-0.2v0.4h-0.2V12.9z"/>
	<path class="st3" d="M21.9,12.7h-0.2v0.2H21v-0.2h-0.2v-0.2H21v0.2h0.6v-0.4H21v-0.2h-0.2v-0.7h1.1v0.2H21v0.4h0.7v0.2h0.2V12.7z"
		/>
	<path class="st3" d="M23.3,12.3h-0.9v-0.2h0.9V12.3z"/>
	<path class="st3" d="M25,12.9h-1.1v-0.4h0.2v-0.2h0.2v-0.2h0.4v-0.4h-0.6v0.2h-0.2v-0.2h0.2v-0.2h0.7v0.2H25v0.4h-0.2v0.2h-0.4v0.2
		h-0.2v0.2H25V12.9z"/>
	<path class="st3" d="M26.5,12.7h-0.2v0.2h-0.7v-0.2h-0.2v-1.1h0.2v-0.2h0.7v0.2h0.2V12.7z M26.3,12.7v-1.1h-0.6v1.1H26.3z"/>
	<path class="st3" d="M27.4,12.9h-0.2v-0.4h0.2v-0.4h0.2v-0.2h0.2v-0.2h-0.9v-0.2H28v0.4h-0.2v0.2h-0.2v0.4h-0.2V12.9z"/>
	<path class="st3" d="M28.9,12.9h-0.2v-0.4h0.2v-0.4h0.2v-0.2h0.2v-0.2h-0.9v-0.2h1.1v0.4h-0.2v0.2h-0.2v0.4h-0.2V12.9z"/>
	<path class="st3" d="M32.6,12.7h-0.2v0.2h-0.7v-0.2h-0.2v-1.1h0.2v-0.2h0.7v0.2h0.2v0.2h-0.2v-0.2h-0.6v1.1h0.6v-0.2h0.2V12.7z"/>
	<path class="st3" d="M34.2,12.9h-0.9v-0.2h-0.2v-0.4h0.2v-0.2H34v-0.4h-0.6v0.2h-0.2v-0.2h0.2v-0.2H34v0.2h0.2V12.9z M34,12.7v-0.4
		h-0.6v0.4H34z"/>
	<path class="st3" d="M35.7,12.9h-0.2v-0.7h-0.6v0.7h-0.2v-1.5h0.9v0.2h0.2v0.4h-0.2v0.2h0.2V12.9z M35.5,12.1v-0.4h-0.6v0.4H35.5z"
		/>
	<path class="st3" d="M37.2,12.7H37v0.2h-0.7v-0.2h-0.2v-1.1h0.2v-0.2H37v0.2h0.2v0.7h-0.9v0.4H37v-0.2h0.2V12.7z M37,12.1v-0.4
		h-0.6v0.4H37z"/>
	<path class="st3" d="M38.8,12.9h-0.2v-0.7h-0.9v-0.9h0.2v0.7h0.6v-0.7h0.2V12.9z"/>
	<path class="st3" d="M40.3,12.9h-1.1v-0.2h0.4v-1.1h-0.4v-0.2h1.1v0.2h-0.4v1.1h0.4V12.9z"/>
	<path class="st3" d="M41.4,12.9h-0.2v-1.3h-0.4v-0.2h1.1v0.2h-0.4V12.9z"/>
	<path class="st3" d="M15.7,16.1h-1.1v-0.2h0.4v-1.1h-0.4v-0.2h1.1v0.2h-0.4v1.1h0.4V16.1z"/>
	<path class="st3" d="M17.3,16.1H17v-0.4h-0.2v-0.2h-0.2v-0.2h-0.2v0.9h-0.2v-1.5h0.2V15h0.2v0.2h0.2v0.2H17v-0.9h0.2V16.1z"/>
	<path class="st3" d="M18.8,15.9h-0.2v0.2h-0.9v-1.5h0.9v0.2h0.2V15.9z M18.6,15.9v-1.1h-0.6v1.1H18.6z"/>
	<path class="st3" d="M20.3,15.9h-0.2v0.2h-0.7v-0.2h-0.2v-1.3h0.2v1.3h0.6v-1.3h0.2V15.9z"/>
	<path class="st3" d="M21.9,15.9h-0.2v0.2H21v-0.2h-0.2v-0.2H21v0.2h0.6v-0.4H21v-0.2h-0.2v-0.4H21v-0.2h0.7v0.2h0.2V15h-0.2v-0.2
		H21v0.4h0.7v0.2h0.2V15.9z"/>
	<path class="st3" d="M23,16.1h-0.2v-1.3h-0.4v-0.2h1.1v0.2H23V16.1z"/>
	<path class="st3" d="M25,16.1h-0.2v-0.7h-0.6v0.7h-0.2v-1.5h0.9v0.2H25v0.4h-0.2v0.2H25V16.1z M24.7,15.2v-0.4h-0.6v0.4H24.7z"/>
	<path class="st3" d="M26.5,16.1h-1.1v-0.2h0.4v-1.1h-0.4v-0.2h1.1v0.2h-0.4v1.1h0.4V16.1z"/>
	<path class="st3" d="M28,15.9h-0.2v0.2h-0.7v-0.2h-0.2v-1.1h0.2v-0.2h0.7v0.2H28v0.7h-0.9v0.4h0.6v-0.2H28V15.9z M27.8,15.2v-0.4
		h-0.6v0.4H27.8z"/>
	<path class="st3" d="M29.6,15.9h-0.2v0.2h-0.7v-0.2h-0.2v-0.2h0.2v0.2h0.6v-0.4h-0.7v-0.2h-0.2v-0.4h0.2v-0.2h0.7v0.2h0.2V15h-0.2
		v-0.2h-0.6v0.4h0.7v0.2h0.2V15.9z"/>
	<path class="st3" d="M13.3,18.6h-0.9v-0.2h0.9V18.6z"/>
	<path class="st3" d="M15,19h-0.2v0.2h-0.9v-1.5h0.9v0.2H15V19z M14.7,19v-1.1h-0.6V19H14.7z"/>
	<path class="st3" d="M16.5,19.2h-0.9V19h-0.2v-0.4h0.2v-0.2h0.7v-0.4h-0.6v0.2h-0.2v-0.2h0.2v-0.2h0.7v0.2h0.2V19.2z M16.3,19v-0.4
		h-0.6V19H16.3z"/>
	<path class="st3" d="M17.6,19.2h-0.2v-1.3h-0.4v-0.2H18v0.2h-0.4V19.2z"/>
	<path class="st3" d="M19.6,19.2h-0.9V19h-0.2v-0.4h0.2v-0.2h0.7v-0.4h-0.6v0.2h-0.2v-0.2h0.2v-0.2h0.7v0.2h0.2V19.2z M19.4,19v-0.4
		h-0.6V19H19.4z"/>
	<path class="st3" d="M21.1,18.4h-0.2v0.2h-0.7v0.7H20v-1.5h0.9v0.2h0.2V18.4z M20.9,18.3v-0.4h-0.6v0.4H20.9z"/>
	<path class="st3" d="M22.6,19h-0.2v0.2h-0.7V19h-0.2v-1.1h0.2v-0.2h0.7v0.2h0.2V19z M22.4,19v-1.1h-0.6V19H22.4z"/>
	<path class="st3" d="M24.2,19H24v0.2h-0.7V19h-0.2v-1.1h0.2v-0.2H24v0.2h0.2V19z M24,19v-1.1h-0.6V19H24z"/>
	<path class="st3" d="M25.7,19.2h-1.1v-1.5h0.2V19h0.9V19.2z"/>
	<path class="st3" d="M28.8,19h-0.2v0.2h-0.7V19h-0.2v-1.1h0.2v-0.2h0.7v0.2h0.2V19z M28.6,19v-1.1h-0.6V19H28.6z"/>
	<path class="st3" d="M30.3,19.2h-1.1V19h0.4v-1.1h-0.4v-0.2h0.7V19h0.4V19.2z"/>
	<path class="st3" d="M31.8,18.6h-0.9v-0.2h0.9V18.6z"/>
</g>
</svg>
