<?xml version="1.0" encoding="utf-8"?>
<!-- Generator: Adobe Illustrator 27.9.0, SVG Export Plug-In . SVG Version: 6.00 Build 0)  -->
<svg version="1.1" id="Ebene_1" xmlns="http://www.w3.org/2000/svg" xmlns:xlink="http://www.w3.org/1999/xlink" x="0px" y="0px"
	 viewBox="0 0 51.2 24" style="enable-background:new 0 0 51.2 24;" xml:space="preserve">
<style type="text/css">
	.st0{display:none;fill:#20C20E;}
	.st1{display:none;}
	.st2{display:inline;fill:#AE7C1A;}
	.st3{fill:#64C0DB;}
</style>
<path class="st0" d="M18.4,8.5h1.2v6.9h-1.2V8.5z M8.2,15.5H7v-7h1.2V15.5z M12.7,16.3h1.2v2.6h-1.2V16.3z M9.8,13.3H11v4.3H9.8
	V13.3z M15.5,13.3h1.2v4.3h-1.2V13.3z M29.8,8.5H31v6.9h-1.2V8.5z M25.3,7.7h-1.2V5.1h1.2V7.7z M28.2,10.7H27V6.4h1.2V10.7z
	 M22.4,10.7h-1.2V6.4h1.2V10.7z"/>
<g class="st1">
	<path class="st2" d="M11.7,14c0.7,0,1.3-0.1,1.3-0.6s-0.7-0.5-2.1-0.8c-1.7-0.3-2.2-1-2.2-2c0-1.3,1.4-2.1,2.9-2.1
		c2.2,0,3.1,1.1,3.1,2.3h-1.9c0-0.6-0.4-0.8-1.2-0.8c-0.6,0-1,0.2-1,0.6c0,0.4,0.2,0.5,1.7,0.8c1.4,0.3,2.7,0.5,2.7,1.9
		c0,1.3-1,2.2-3.2,2.2c-2.4,0-3.4-1.2-3.4-2.4h1.9C10.3,13.6,10.8,14,11.7,14z"/>
	<path class="st2" d="M17.5,8.6v2.8h0.6l1.8-2.8h2.3l-2.3,3.5l2.7,3.3h-2.4l-1.9-2.5h-0.7v2.5h-2V8.6H17.5z"/>
	<path class="st2" d="M22.3,8.6h2.2l1.6,3.1l1.6-3.1h2.2L27,13.4v2h-1.9v-2L22.3,8.6z"/>
	<path class="st2" d="M32.2,8.6l3.2,4.3V8.6h1.9v6.8h-1.9l-3.2-4.1v4.1h-1.9V8.6H32.2z"/>
	<path class="st2" d="M43.3,8.6v1.6H40v1.1h3v1.5h-3v1.1h3.3v1.6h-5.2V8.6H43.3z"/>
	<path class="st2" d="M49.8,8.6v1.6h-2.1v5.2h-1.9v-5.2h-2.1V8.6H49.8z"/>
</g>
<g class="st1">
	<path class="st2" d="M13.9,10.4c0,1.2-0.7,1.8-1.4,2.1l1.8,2.4h-2.1l-1.6-2.2H9.7v2.2H7.8V8.2h3.5C12.3,8.2,13.9,8.6,13.9,10.4z
		 M11.1,11.3c0.5,0,0.9-0.3,0.9-0.8s-0.4-0.8-0.9-0.8H9.7v1.6H11.1z"/>
	<path class="st2" d="M18.2,8.1c2,0,3.7,1.3,3.7,3.4S20.3,15,18.2,15c-2,0-3.7-1.3-3.7-3.4S16.2,8.1,18.2,8.1z M16.4,11.6
		c0,1.1,0.7,1.9,1.8,1.9s1.8-0.8,1.8-1.9s-0.7-1.9-1.8-1.9C17.1,9.7,16.4,10.4,16.4,11.6z"/>
	<path class="st2" d="M25.7,13.6c0.7,0,1.3-0.2,1.3-0.6c0-0.5-0.7-0.5-2.1-0.8c-1.6-0.3-2.2-1-2.2-2c0-1.3,1.4-2.1,2.9-2.1
		c2.2,0,3.1,1.1,3.1,2.3h-1.9c0-0.5-0.4-0.8-1.2-0.8c-0.5,0-1,0.2-1,0.6c0,0.4,0.2,0.5,1.6,0.8s2.6,0.5,2.6,1.9c0,1.3-1,2.2-3.1,2.2
		c-2.4,0-3.3-1.2-3.3-2.4h1.9C24.3,13.2,24.8,13.6,25.7,13.6z"/>
	<path class="st2" d="M34.6,8.2v1.5h-3.2v1.1h2.9v1.4h-2.9v1.1h3.2v1.5h-5.1V8.2H34.6z"/>
	<path class="st2" d="M37.1,8.2v2.5h3.3V8.2h1.9v6.7h-1.9v-2.7h-3.3v2.7h-1.9V8.2H37.1z"/>
	<path class="st2" d="M45,8.2v2.5h3.3V8.2h1.9v6.7h-1.9v-2.7H45v2.7h-1.9V8.2H45z"/>
</g>
<g>
	<path class="st3" d="M3.6,5.1H3.4v0.3H2.5V5.1H2.3V3.8h0.3V3.5h0.8v0.3h0.3V4H3.3V3.8H2.6v1.3h0.8V4.8h0.3V5.1z"/>
	<path class="st3" d="M5.5,5.4H5.2V4.8H4.4v0.5H4.2V4.3h0.3V3.8h0.3V3.5H5v0.3h0.3v0.5h0.3V5.4z M5.2,4.6V4.3H5V3.8H4.7v0.5H4.4v0.3
		H5.2z"/>
	<path class="st3" d="M7.4,5.4H7.1V4.6H6.3v0.8H6V3.5h1.1v0.3h0.3v0.5H7.1v0.3h0.3V5.4z M7.1,4.3V3.8H6.3v0.5H7.1z"/>
	<path class="st3" d="M9.3,5.1H9v0.3H8.2V5.1H7.9V3.8h0.3V3.5H9v0.3h0.3v0.8H8.2v0.5H9V4.8h0.3V5.1z M9,4.3V3.8H8.2v0.5H9z"/>
	<path class="st3" d="M11.1,5.4h-0.3V4.6H9.8V3.5h0.3v0.8h0.8V3.5h0.3V5.4z"/>
	<path class="st3" d="M13,5.4h-1.3V5.1h0.5V3.8h-0.5V3.5H13v0.3h-0.5v1.3H13V5.4z"/>
	<path class="st3" d="M14.4,5.4h-0.3V3.8h-0.5V3.5h1.3v0.3h-0.5V5.4z"/>
	<path class="st3" d="M18.7,5.4h-1.3V5.1h0.5V3.8h-0.5V3.5h1.3v0.3h-0.5v1.3h0.5V5.4z"/>
	<path class="st3" d="M20.6,5.4h-0.3V4.8H20V4.6h-0.3V4.3h-0.3v1.1h-0.3V3.5h0.3V4h0.3v0.3H20v0.3h0.3V3.5h0.3V5.4z"/>
	<path class="st3" d="M22.4,5.1h-0.3v0.3h-1.1V3.5h1.1v0.3h0.3V5.1z M22.2,5.1V3.8h-0.8v1.3H22.2z"/>
	<path class="st3" d="M24.3,5.1h-0.3v0.3h-0.8V5.1H23V3.5h0.3v1.6H24V3.5h0.3V5.1z"/>
	<path class="st3" d="M26.2,5.1h-0.3v0.3h-0.8V5.1h-0.3V4.8h0.3v0.3h0.8V4.6h-0.8V4.3h-0.3V3.8h0.3V3.5h0.8v0.3h0.3V4h-0.3V3.8h-0.8
		v0.5h0.8v0.3h0.3V5.1z"/>
	<path class="st3" d="M27.5,5.4h-0.3V3.8h-0.5V3.5h1.3v0.3h-0.5V5.4z"/>
	<path class="st3" d="M30,5.4h-0.3V4.6h-0.8v0.8h-0.3V3.5h1.1v0.3H30v0.5h-0.3v0.3H30V5.4z M29.7,4.3V3.8h-0.8v0.5H29.7z"/>
	<path class="st3" d="M31.8,5.4h-1.3V5.1H31V3.8h-0.5V3.5h1.3v0.3h-0.5v1.3h0.5V5.4z"/>
	<path class="st3" d="M33.7,5.1h-0.3v0.3h-0.8V5.1h-0.3V3.8h0.3V3.5h0.8v0.3h0.3v0.8h-1.1v0.5h0.8V4.8h0.3V5.1z M33.5,4.3V3.8h-0.8
		v0.5H33.5z"/>
	<path class="st3" d="M35.6,5.1h-0.3v0.3h-0.8V5.1h-0.3V4.8h0.3v0.3h0.8V4.6h-0.8V4.3h-0.3V3.8h0.3V3.5h0.8v0.3h0.3V4h-0.3V3.8h-0.8
		v0.5h0.8v0.3h0.3V5.1z"/>
	<path class="st3" d="M39.4,5.1h-0.3v0.3h-0.8V5.1H38V3.5h0.3v1.6h0.8V3.5h0.3V5.1z"/>
	<path class="st3" d="M41.3,5.4H41V4.8h-0.3V4.6h-0.3V4.3h-0.3v1.1h-0.3V3.5h0.3V4h0.3v0.3h0.3v0.3H41V3.5h0.3V5.4z"/>
	<path class="st3" d="M43.1,5.4h-1.3V5.1h0.5V3.8h-0.5V3.5h1.3v0.3h-0.5v1.3h0.5V5.4z"/>
	<path class="st3" d="M44.7,4.6h-0.8v0.8h-0.3V3.5H45v0.3h-1.1v0.5h0.8V4.6z"/>
	<path class="st3" d="M46.9,5.4h-1.3V5.1h0.5V3.8h-0.5V3.5h1.3v0.3h-0.5v1.3h0.5V5.4z"/>
	<path class="st3" d="M48.8,5.1h-0.3v0.3h-0.8V5.1h-0.3V3.8h0.3V3.5h0.8v0.3h0.3v0.8h-1.1v0.5h0.8V4.8h0.3V5.1z M48.5,4.3V3.8h-0.8
		v0.5H48.5z"/>
	<path class="st3" d="M50.7,5.1h-0.3v0.3h-1.1V3.5h1.1v0.3h0.3V5.1z M50.4,5.1V3.8h-0.8v1.3H50.4z"/>
	<path class="st3" d="M13,9h-0.3v0.3H12V9h-0.3V7.6H12V7.3h0.8v0.3H13V9z M12.8,8.9V7.6H12v1.3H12.8z"/>
	<path class="st3" d="M14.9,8.2h-0.3v0.3h-0.8v0.8h-0.3V7.3h1.1v0.3h0.3V8.2z M14.6,8.1V7.6h-0.8v0.5H14.6z"/>
	<path class="st3" d="M16.8,9h-0.3v0.3h-0.8V9h-0.3V7.6h0.3V7.3h0.8v0.3h0.3v0.8h-1.1v0.5h0.8V8.7h0.3V9z M16.5,8.1V7.6h-0.8v0.5
		H16.5z"/>
	<path class="st3" d="M18.7,9.2h-0.3V8.4h-0.8v0.8h-0.3V7.3h1.1v0.3h0.3v0.5h-0.3v0.3h0.3V9.2z M18.4,8.1V7.6h-0.8v0.5H18.4z"/>
	<path class="st3" d="M20.6,9.2h-1.1V9h-0.3V8.4h0.3V8.1h0.8V7.6h-0.8v0.3h-0.3V7.6h0.3V7.3h0.8v0.3h0.3V9.2z M20.3,8.9V8.4h-0.8
		v0.5H20.3z"/>
	<path class="st3" d="M21.9,9.2h-0.3V7.6h-0.5V7.3h1.3v0.3h-0.5V9.2z"/>
	<path class="st3" d="M24.3,9.2H23V8.9h0.5V7.6H23V7.3h1.3v0.3h-0.5v1.3h0.5V9.2z"/>
	<path class="st3" d="M26.2,9.2h-0.3V8.7h-0.3V8.4h-0.3V8.2h-0.3v1.1h-0.3V7.3h0.3v0.5h0.3v0.3h0.3v0.3h0.3V7.3h0.3V9.2z"/>
	<path class="st3" d="M28.1,9h-0.3v0.3H27V9h-0.3V7.6H27V7.3h0.8v0.3h0.3v0.3h-0.3V7.6H27v1.3h0.8V8.4h-0.5V8.1h0.8V9z"/>
	<path class="st3" d="M31.8,9h-0.3v0.3h-0.8V9h-0.3V8.7h0.3v0.3h0.8V8.4h-0.8V8.2h-0.3V7.6h0.3V7.3h0.8v0.3h0.3v0.3h-0.3V7.6h-0.8
		v0.5h0.8v0.3h0.3V9z"/>
	<path class="st3" d="M33.2,9.2h-0.3V8.4h-0.3V8.2h-0.3V7.3h0.3v0.8h0.3v0.3h0.3V8.1h0.3V7.3h0.3v0.8h-0.3v0.3h-0.3V9.2z"/>
	<path class="st3" d="M35.6,9h-0.3v0.3h-0.8V9h-0.3V8.7h0.3v0.3h0.8V8.4h-0.8V8.2h-0.3V7.6h0.3V7.3h0.8v0.3h0.3v0.3h-0.3V7.6h-0.8
		v0.5h0.8v0.3h0.3V9z"/>
	<path class="st3" d="M37,9.2h-0.3V7.6h-0.5V7.3h1.3v0.3H37V9.2z"/>
	<path class="st3" d="M39.4,9h-0.3v0.3h-0.8V9H38V7.6h0.3V7.3h0.8v0.3h0.3v0.8h-1.1v0.5h0.8V8.7h0.3V9z M39.1,8.1V7.6h-0.8v0.5H39.1
		z"/>
	<path class="st3" d="M41.3,9.2H41V7.9h-0.3v0.3h-0.3V7.9h-0.3v1.3h-0.3V7.3h0.3v0.3h0.3v0.3h0.3V7.6H41V7.3h0.3V9.2z"/>
	<path class="st3" d="M1.7,12.8H1.5v0.3H0.7v-0.3H0.4v-1.3h0.3v-0.3h0.8v0.3h0.3v0.3H1.5v-0.3H0.7v1.3h0.8v-0.3h0.3V12.8z"/>
	<path class="st3" d="M3.6,12.8H3.4v0.3H2.5v-0.3H2.3v-1.3h0.3v-0.3h0.8v0.3h0.3V12.8z M3.3,12.8v-1.3H2.6v1.3H3.3z"/>
	<path class="st3" d="M5.5,12H5.2v0.3H4.4v0.8H4.2v-1.9h1.1v0.3h0.3V12z M5.2,12v-0.5H4.4V12H5.2z"/>
	<path class="st3" d="M6.9,13.1H6.6v-0.8H6.3V12H6v-0.8h0.3V12h0.3v0.3h0.3V12h0.3v-0.8h0.3V12H7.1v0.3H6.9V13.1z"/>
	<path class="st3" d="M9.3,13.1H9v-0.8H8.2v0.8H7.9v-1.9H9v0.3h0.3V12H9v0.3h0.3V13.1z M9,12v-0.5H8.2V12H9z"/>
	<path class="st3" d="M11.1,13.1H9.8v-0.3h0.5v-1.3H9.8v-0.3h1.3v0.3h-0.5v1.3h0.5V13.1z"/>
	<path class="st3" d="M13,12.8h-0.3v0.3H12v-0.3h-0.3v-1.3H12v-0.3h0.8v0.3H13v0.3h-0.3v-0.3H12v1.3h0.8v-0.5h-0.5V12H13V12.8z"/>
	<path class="st3" d="M14.9,13.1h-0.3v-0.8h-0.8v0.8h-0.3v-1.9h0.3V12h0.8v-0.8h0.3V13.1z"/>
	<path class="st3" d="M16.3,13.1H16v-1.6h-0.5v-0.3h1.3v0.3h-0.5V13.1z"/>
	<path class="st3" d="M20.6,13.1h-1.3v-0.5h0.3v-0.3h0.3V12h0.5v-0.5h-0.8v0.3h-0.3v-0.3h0.3v-0.3h0.8v0.3h0.3V12h-0.3v0.3h-0.5v0.3
		h-0.3v0.3h1.1V13.1z"/>
	<path class="st3" d="M22.4,12.8h-0.3v0.3h-0.8v-0.3h-0.3v-1.3h0.3v-0.3h0.8v0.3h0.3V12.8z M22.2,12.8v-1.3h-0.8v1.3H22.2z"/>
	<path class="st3" d="M23.5,13.1h-0.3v-0.5h0.3V12h0.3v-0.3H24v-0.3H23v-0.3h1.3v0.5h-0.3V12h-0.3v0.5h-0.3V13.1z"/>
	<path class="st3" d="M26.2,12.8h-0.3v0.3h-0.8v-0.3h-0.3v-0.3h0.3v0.3h0.8v-0.5h-0.8V12h-0.3v-0.8h1.3v0.3h-1.1V12h0.8v0.3h0.3
		V12.8z"/>
	<path class="st3" d="M28,12.3h-1.1V12H28V12.3z"/>
	<path class="st3" d="M30,13.1h-1.3v-0.5h0.3v-0.3h0.3V12h0.5v-0.5h-0.8v0.3h-0.3v-0.3h0.3v-0.3h0.8v0.3H30V12h-0.3v0.3h-0.5v0.3
		h-0.3v0.3H30V13.1z"/>
	<path class="st3" d="M31.8,12.8h-0.3v0.3h-0.8v-0.3h-0.3v-1.3h0.3v-0.3h0.8v0.3h0.3V12.8z M31.6,12.8v-1.3h-0.8v1.3H31.6z"/>
	<path class="st3" d="M32.9,13.1h-0.3v-0.5h0.3V12h0.3v-0.3h0.3v-0.3h-1.1v-0.3h1.3v0.5h-0.3V12h-0.3v0.5h-0.3V13.1z"/>
	<path class="st3" d="M34.8,13.1h-0.3v-0.5h0.3V12h0.3v-0.3h0.3v-0.3h-1.1v-0.3h1.3v0.5h-0.3V12h-0.3v0.5h-0.3V13.1z"/>
	<path class="st3" d="M39.4,12.8h-0.3v0.3h-0.8v-0.3H38v-1.3h0.3v-0.3h0.8v0.3h0.3v0.3h-0.3v-0.3h-0.8v1.3h0.8v-0.3h0.3V12.8z"/>
	<path class="st3" d="M41.3,13.1h-1.1v-0.3h-0.3v-0.5h0.3V12H41v-0.5h-0.8v0.3h-0.3v-0.3h0.3v-0.3H41v0.3h0.3V13.1z M41,12.8v-0.5
		h-0.8v0.5H41z"/>
	<path class="st3" d="M43.1,13.1h-0.3v-0.8h-0.8v0.8h-0.3v-1.9h1.1v0.3h0.3V12h-0.3v0.3h0.3V13.1z M42.9,12v-0.5h-0.8V12H42.9z"/>
	<path class="st3" d="M45,12.8h-0.3v0.3h-0.8v-0.3h-0.3v-1.3h0.3v-0.3h0.8v0.3H45v0.8h-1.1v0.5h0.8v-0.3H45V12.8z M44.7,12v-0.5
		h-0.8V12H44.7z"/>
	<path class="st3" d="M46.9,13.1h-0.3v-0.8h-1.1v-1.1h0.3V12h0.8v-0.8h0.3V13.1z"/>
	<path class="st3" d="M48.8,13.1h-1.3v-0.3H48v-1.3h-0.5v-0.3h1.3v0.3h-0.5v1.3h0.5V13.1z"/>
	<path class="st3" d="M50.1,13.1h-0.3v-1.6h-0.5v-0.3h1.3v0.3h-0.5V13.1z"/>
	<path class="st3" d="M18.7,16.9h-1.3v-0.3h0.5v-1.3h-0.5V15h1.3v0.3h-0.5v1.3h0.5V16.9z"/>
	<path class="st3" d="M20.6,16.9h-0.3v-0.5H20v-0.3h-0.3v-0.3h-0.3v1.1h-0.3V15h0.3v0.5h0.3v0.3H20v0.3h0.3V15h0.3V16.9z"/>
	<path class="st3" d="M22.4,16.6h-0.3v0.3h-1.1V15h1.1v0.3h0.3V16.6z M22.2,16.6v-1.3h-0.8v1.3H22.2z"/>
	<path class="st3" d="M24.3,16.6h-0.3v0.3h-0.8v-0.3H23V15h0.3v1.6H24V15h0.3V16.6z"/>
	<path class="st3" d="M26.2,16.6h-0.3v0.3h-0.8v-0.3h-0.3v-0.3h0.3v0.3h0.8v-0.5h-0.8v-0.3h-0.3v-0.5h0.3V15h0.8v0.3h0.3v0.3h-0.3
		v-0.3h-0.8v0.5h0.8v0.3h0.3V16.6z"/>
	<path class="st3" d="M27.5,16.9h-0.3v-1.6h-0.5V15h1.3v0.3h-0.5V16.9z"/>
	<path class="st3" d="M30,16.9h-0.3v-0.8h-0.8v0.8h-0.3V15h1.1v0.3H30v0.5h-0.3v0.3H30V16.9z M29.7,15.8v-0.5h-0.8v0.5H29.7z"/>
	<path class="st3" d="M31.8,16.9h-1.3v-0.3H31v-1.3h-0.5V15h1.3v0.3h-0.5v1.3h0.5V16.9z"/>
	<path class="st3" d="M33.7,16.6h-0.3v0.3h-0.8v-0.3h-0.3v-1.3h0.3V15h0.8v0.3h0.3v0.8h-1.1v0.5h0.8v-0.3h0.3V16.6z M33.5,15.8v-0.5
		h-0.8v0.5H33.5z"/>
	<path class="st3" d="M35.6,16.6h-0.3v0.3h-0.8v-0.3h-0.3v-0.3h0.3v0.3h0.8v-0.5h-0.8v-0.3h-0.3v-0.5h0.3V15h0.8v0.3h0.3v0.3h-0.3
		v-0.3h-0.8v0.5h0.8v0.3h0.3V16.6z"/>
	<path class="st3" d="M15.7,20h-1.1v-0.3h1.1V20z"/>
	<path class="st3" d="M17.7,20.5h-0.3v0.3h-1.1v-1.9h1.1v0.3h0.3V20.5z M17.5,20.5v-1.3h-0.8v1.3H17.5z"/>
	<path class="st3" d="M19.6,20.8h-1.1v-0.3h-0.3V20h0.3v-0.3h0.8v-0.5h-0.8v0.3h-0.3v-0.3h0.3v-0.3h0.8v0.3h0.3V20.8z M19.3,20.5V20
		h-0.8v0.5H19.3z"/>
	<path class="st3" d="M21,20.8h-0.3v-1.6h-0.5v-0.3h1.3v0.3H21V20.8z"/>
	<path class="st3" d="M23.4,20.8h-1.1v-0.3H22V20h0.3v-0.3h0.8v-0.5h-0.8v0.3H22v-0.3h0.3v-0.3h0.8v0.3h0.3V20.8z M23.1,20.5V20
		h-0.8v0.5H23.1z"/>
	<path class="st3" d="M25.3,19.7H25V20h-0.8v0.8h-0.3v-1.9H25v0.3h0.3V19.7z M25,19.7v-0.5h-0.8v0.5H25z"/>
	<path class="st3" d="M27.1,20.5h-0.3v0.3h-0.8v-0.3h-0.3v-1.3h0.3v-0.3h0.8v0.3h0.3V20.5z M26.9,20.5v-1.3h-0.8v1.3H26.9z"/>
	<path class="st3" d="M29,20.5h-0.3v0.3h-0.8v-0.3h-0.3v-1.3h0.3v-0.3h0.8v0.3H29V20.5z M28.7,20.5v-1.3H28v1.3H28.7z"/>
	<path class="st3" d="M30.9,20.8h-1.3v-1.9h0.3v1.6h1.1V20.8z"/>
	<path class="st3" d="M34.7,20.5h-0.3v0.3h-0.8v-0.3h-0.3v-1.3h0.3v-0.3h0.8v0.3h0.3V20.5z M34.4,20.5v-1.3h-0.8v1.3H34.4z"/>
	<path class="st3" d="M36.5,20.8h-1.3v-0.3h0.5v-1.3h-0.5v-0.3H36v1.6h0.5V20.8z"/>
	<path class="st3" d="M38.3,20h-1.1v-0.3h1.1V20z"/>
</g>
</svg>
